<svg xmlns="http://www.w3.org/2000/svg" viewBox="0 0 300 400" width="300" height="400">
  <defs>
    <linearGradient id="person" x1="0%" y1="0%" x2="100%" y2="100%">
      <stop offset="0%" style="stop-color:#FFB6C1;stop-opacity:1" />
      <stop offset="100%" style="stop-color:#FF69B4;stop-opacity:1" />
    </linearGradient>
    <pattern id="checkerboard" patternUnits="userSpaceOnUse" width="20" height="20">
      <rect width="20" height="20" fill="#f0f0f0"/>
      <rect width="10" height="10" fill="#e0e0e0"/>
      <rect x="10" y="10" width="10" height="10" fill="#e0e0e0"/>
    </pattern>
  </defs>
  
  <!-- 透明背景（棋盘格图案表示透明） -->
  <rect width="300" height="400" fill="url(#checkerboard)"/>
  
  <!-- 人像轮廓（去除背景后） -->
  <ellipse cx="150" cy="120" rx="35" ry="45" fill="url(#person)"/>
  <rect x="115" y="165" width="70" height="120" fill="url(#person)"/>
  <ellipse cx="150" cy="285" rx="25" ry="35" fill="url(#person)"/>
  
  <!-- 面部特征 -->
  <circle cx="140" cy="110" r="3" fill="#333"/>
  <circle cx="160" cy="110" r="3" fill="#333"/>
  <ellipse cx="150" cy="125" rx="8" ry="3" fill="#333"/>
  
  <!-- 头发 -->
  <ellipse cx="150" cy="95" rx="40" ry="25" fill="#8B4513"/>
  
  <!-- 手臂 -->
  <ellipse cx="120" cy="200" rx="15" ry="25" fill="url(#person)"/>
  <ellipse cx="180" cy="200" rx="15" ry="25" fill="url(#person)"/>
  
  <!-- 阴影（保留一些阴影效果） -->
  <ellipse cx="150" cy="320" rx="40" ry="10" fill="rgba(0,0,0,0.1)"/>
  
  <!-- 边缘高光效果 -->
  <ellipse cx="150" cy="120" rx="35" ry="45" fill="none" stroke="rgba(255,255,255,0.3)" stroke-width="2"/>
  <rect x="115" y="165" width="70" height="120" fill="none" stroke="rgba(255,255,255,0.3)" stroke-width="2"/>
</svg> 
